<?xml version="1.0" encoding="utf-8" ?><svg xmlns="http://www.w3.org/2000/svg" xmlns:xlink="http://www.w3.org/1999/xlink" width="479" height="512" viewBox="0 0 479 512"><defs><linearGradient id="gradient_0" gradientUnits="userSpaceOnUse" x1="928.89923" y1="690.19458" x2="448.58987" y2="509.70413"><stop offset="0" stop-color="#163128"/><stop offset="1" stop-color="#256F4E"/></linearGradient></defs><path fill="url(#gradient_0)" transform="matrix(0.497921 0 0 0.49757 -6.10352e-05 0)" d="M743.022 119.757C749.136 115.249 764.53 107.678 771.886 103.376L914.986 21.0173C924.663 15.526 938.085 6.96757 948.348 2.01238C950.927 0.767207 959.356 6.89014 962 8.68241L962 13.5911L962 89.1243C947.79 97.8562 931.958 106.622 917.416 115.006L840.174 159.594L813.006 175.219C809.545 177.209 800.459 182.213 797.714 184.635C802.28 189.184 809.944 196.824 814.91 200.832C824.392 208.487 830.121 213.843 837.632 223.67C841.992 229.374 849.395 235.144 854.014 240.943C857.492 244.972 860.747 250.022 864.035 254.28C881.522 276.544 897.168 300.193 910.82 324.995C934.783 370.243 951.089 419.148 959.074 469.725C959.99 475.591 961.503 483.832 962 489.608L962 501.594L962 613.857C959.821 624.201 959.039 635.105 956.813 645.439C952.513 665.056 948.216 685.248 941.785 704.308C936.275 720.637 928.476 736.977 921.816 752.963C911.469 777.799 896.145 800.95 881.823 823.674C878.487 828.967 873.642 834.003 869.982 839.147C859.579 854.363 847.569 867.255 835.019 880.609C828.147 887.921 824.418 893.35 815.954 899.499C810.411 905.112 804.564 910.536 798.631 915.698C784.132 928.312 769.21 938.997 753.412 949.803C742.176 957.488 733.085 963.133 721.117 969.833C682.042 991.82 640.094 1008.25 596.484 1018.66C587.019 1020.94 577.444 1022.21 567.996 1024.09L566.034 1024.42C557.689 1025.84 549.526 1026.42 541.137 1027.33C538.211 1027.65 531.491 1028.14 528.873 1029L506.706 1029L465.389 1029C461.49 1028.17 443.103 1026.85 439.657 1028.31C435.686 1027.98 426.493 1028.22 423.517 1026.15C420.325 1024.83 416.975 1024.49 413.569 1024.01C395.68 1021.5 378.134 1017.63 360.553 1013.57C359.444 1013.32 357.927 1013.43 356.784 1013.56C354.343 1014.35 341.301 1009.86 339.576 1007.77C336.397 1006.19 327.55 1003.36 323.879 1002.07C315.329 999.064 306.865 995.82 298.497 992.339C294.145 990.514 276.049 981.984 272.768 981.582C261.937 978.172 233.564 960.587 223.792 954.295C139.436 899.984 74.1436 819.83 37.7152 726.431C19.6177 680.03 9.54493 635.287 5.89834 585.436C5.6534 582.148 6.33339 576.725 5.62128 573.885C4.16299 570.132 4.15425 566.222 4.18501 562.241C4.14302 555.08 3.25552 533.011 5.56918 527.836C6.04136 526.821 5.99223 516.867 6.15873 514.521C7.09454 501.606 8.57448 488.737 10.5946 475.947C20.234 411.393 43.25 349.566 78.1677 294.426C132.552 208.565 212.689 142.103 307.12 104.546C328.825 95.8579 345.107 89.6666 368.124 84.6311C390.256 79.7891 411.102 75.5873 433.774 73.5067C438.927 73.0339 447.489 71.4473 452.286 71.3416C470.52 70.94 488.473 69.6809 506.718 71.1931C510.408 71.4989 521.434 70.2274 523.865 71.7729C525.214 72.5364 525.781 72.8634 527.044 73.8418C527.705 78.1944 527.567 96.8357 527.468 102.38C527.21 116.952 527.981 132.929 527.459 147.307C535.145 141.86 545.27 137.803 553.278 132.472C568.533 122.317 585.077 114.387 600.833 105.239L641.653 81.1341C644.204 80.0127 646.799 78.6108 649.217 77.22C664.733 68.2961 679.526 58.1084 695.718 50.3274C700.332 52.6667 709.389 57.1012 713.125 60.2841C713.5 64.9244 713.859 80.2705 713.473 84.6709C712.632 94.2507 715.344 132.065 712.363 137.421C716.755 136.085 734.822 123.428 743.022 119.757Z"/><defs><linearGradient id="gradient_1" gradientUnits="userSpaceOnUse" x1="5.6975799" y1="530.47235" x2="523.46411" y2="522.88751"><stop offset="0" stop-color="#183A2D"/><stop offset="1" stop-color="#1F573F"/></linearGradient></defs><path fill="url(#gradient_1)" transform="matrix(0.497921 0 0 0.49757 -6.10352e-05 0)" d="M5.56918 527.836C6.04136 526.821 5.99223 516.867 6.15873 514.521C7.09454 501.606 8.57448 488.737 10.5946 475.947C20.234 411.393 43.25 349.566 78.1677 294.426C132.552 208.565 212.689 142.103 307.12 104.546C328.825 95.8579 345.107 89.6666 368.124 84.6311C390.256 79.7891 411.102 75.5873 433.774 73.5067C438.927 73.0339 447.489 71.4473 452.286 71.3416C470.52 70.94 488.473 69.6809 506.718 71.1931C510.408 71.4989 521.434 70.2274 523.865 71.7729C525.214 72.5364 525.781 72.8634 527.044 73.8418C527.705 78.1944 527.567 96.8357 527.468 102.38C527.21 116.952 527.981 132.929 527.459 147.307C523.951 151.394 477.102 177.255 469.951 181.37L394.977 224.958C376.541 235.577 358.332 245.603 340.04 256.702L340.097 755.677L340.09 919.32L340.1 973.569C340.102 982.446 339.855 992.879 340.159 1001.65C340.105 1003.36 340.183 1006.31 339.576 1007.77C336.397 1006.19 327.55 1003.36 323.879 1002.07C315.329 999.064 306.865 995.82 298.497 992.339C294.145 990.514 276.049 981.984 272.768 981.582C261.937 978.172 233.564 960.587 223.792 954.295C139.436 899.984 74.1436 819.83 37.7152 726.431C19.6177 680.03 9.54493 635.287 5.89834 585.436C5.6534 582.148 6.33339 576.725 5.62128 573.885C4.16299 570.132 4.15425 566.222 4.18501 562.241C4.14302 555.08 3.25552 533.011 5.56918 527.836Z"/><path fill="#FEFEFE" transform="matrix(0.497921 0 0 0.49757 -6.10352e-05 0)" d="M523.865 71.7729C525.214 72.5364 525.781 72.8634 527.044 73.8418C527.705 78.1944 527.567 96.8357 527.468 102.38C527.21 116.952 527.981 132.929 527.459 147.307C523.951 151.394 477.102 177.255 469.951 181.37L394.977 224.958C376.541 235.577 358.332 245.603 340.04 256.702L340.097 755.677L340.09 919.32L340.1 973.569C340.102 982.446 339.855 992.879 340.159 1001.65C340.105 1003.36 340.183 1006.31 339.576 1007.77C336.397 1006.19 327.55 1003.36 323.879 1002.07C315.329 999.064 306.865 995.82 298.497 992.339C294.145 990.514 276.049 981.984 272.768 981.582L272.896 218.289C276.697 215.474 281.553 212.684 285.665 210.281C302.662 200.35 320.737 191.581 337.639 181.513L414.174 136.841C424.019 131.221 434.177 125.894 443.957 120.224L494.462 91.2019C502.84 86.3568 510.418 80.8299 519.091 76.5516C521.632 75.298 523.087 74.3786 523.865 71.7729Z"/><path fill="#47564C" transform="matrix(0.497921 0 0 0.49757 -6.10352e-05 0)" d="M5.56918 527.836C6.09238 528.625 6.81554 529.751 6.86887 530.707C7.47532 541.576 7.01194 553.941 7.06911 564.817C6.27095 563.406 6.16696 563.07 4.89659 561.989L4.18501 562.241C4.14302 555.08 3.25552 533.011 5.56918 527.836Z"/><path fill="#5D625D" transform="matrix(0.497921 0 0 0.49757 -6.10352e-05 0)" d="M4.18501 562.241L4.89659 561.989C6.16696 563.07 6.27095 563.406 7.06911 564.817C7.06283 568.151 7.57253 571.334 5.62128 573.885C4.16299 570.132 4.15425 566.222 4.18501 562.241Z"/><path fill="#FEFEFE" transform="matrix(0.497921 0 0 0.49757 -6.10352e-05 0)" d="M743.022 119.757C749.136 115.249 764.53 107.678 771.886 103.376L914.986 21.0173C924.663 15.526 938.085 6.96757 948.348 2.01238C950.927 0.767207 959.356 6.89014 962 8.68241L962 13.5911L962 89.1243C947.79 97.8562 931.958 106.622 917.416 115.006L840.174 159.594L813.006 175.219C809.545 177.209 800.459 182.213 797.714 184.635C782.356 193.947 766.455 202.499 750.992 211.503L571.34 315.201C549.99 327.602 527.907 339.623 506.729 352.387L506.836 562.822L506.832 640.656C506.83 655.24 507.163 671.097 506.611 685.526C518.23 679.941 529.367 672.293 540.582 665.85C568.286 649.933 596.099 634.22 623.861 618.411L717.329 564.315L770.819 533.536C778.942 528.833 787.943 522.597 796.227 518.507C811.525 529.168 826.03 536.369 842.046 545.557C849.359 549.753 855.174 552.647 861.954 557.914C856.505 561.782 849.911 565.038 844.002 568.244C836.446 572.375 828.934 576.586 821.468 580.877L724.676 636.639L570.809 725.587C549.713 737.805 528.112 750.842 506.787 762.663L506.788 881.262C506.782 901.487 506.235 924.828 506.904 944.816C506.199 972.572 507.32 1001.18 506.706 1029L465.389 1029C461.49 1028.17 443.103 1026.85 439.657 1028.31C435.686 1027.98 426.493 1028.22 423.517 1026.15C420.325 1024.83 416.975 1024.49 413.569 1024.01C395.68 1021.5 378.134 1017.63 360.553 1013.57C359.444 1013.32 357.927 1013.43 356.784 1013.56C354.343 1014.35 341.301 1009.86 339.576 1007.77C340.183 1006.31 340.105 1003.36 340.159 1001.65C339.855 992.879 340.102 982.446 340.1 973.569L340.09 919.32L340.097 755.677L340.04 256.702C358.332 245.603 376.541 235.577 394.977 224.958L469.951 181.37C477.102 177.255 523.951 151.394 527.459 147.307C535.145 141.86 545.27 137.803 553.278 132.472C568.533 122.317 585.077 114.387 600.833 105.239L641.653 81.1341C644.204 80.0127 646.799 78.6108 649.217 77.22C664.733 68.2961 679.526 58.1084 695.718 50.3274C700.332 52.6667 709.389 57.1012 713.125 60.2841C713.5 64.9244 713.859 80.2705 713.473 84.6709C712.632 94.2507 715.344 132.065 712.363 137.421C716.755 136.085 734.822 123.428 743.022 119.757Z"/><path fill="#FEFEFE" transform="matrix(0.497921 0 0 0.49757 -6.10352e-05 0)" d="M695.718 50.3274C700.332 52.6667 709.389 57.1012 713.125 60.2841C713.5 64.9244 713.859 80.2705 713.473 84.6709C712.632 94.2507 715.344 132.065 712.363 137.421C703.112 143.509 692.74 148.874 683.136 154.453C666.553 164.086 649.781 173.626 633.243 183.319L423.575 304.144L423.572 773.354L423.542 936.623C423.537 963.885 422.928 993.26 423.591 1020.26L423.517 1026.15C420.325 1024.83 416.975 1024.49 413.569 1024.01C395.68 1021.5 378.134 1017.63 360.553 1013.57C359.444 1013.32 357.927 1013.43 356.784 1013.56C354.343 1014.35 341.301 1009.86 339.576 1007.77C340.183 1006.31 340.105 1003.36 340.159 1001.65C339.855 992.879 340.102 982.446 340.1 973.569L340.09 919.32L340.097 755.677L340.04 256.702C358.332 245.603 376.541 235.577 394.977 224.958L469.951 181.37C477.102 177.255 523.951 151.394 527.459 147.307C535.145 141.86 545.27 137.803 553.278 132.472C568.533 122.317 585.077 114.387 600.833 105.239L641.653 81.1341C644.204 80.0127 646.799 78.6108 649.217 77.22C664.733 68.2961 679.526 58.1084 695.718 50.3274Z"/><defs><linearGradient id="gradient_2" gradientUnits="userSpaceOnUse" x1="584.19281" y1="546.30884" x2="293.22952" y2="485.18454"><stop offset="0" stop-color="#172924"/><stop offset="1" stop-color="#256F4E"/></linearGradient></defs><path fill="url(#gradient_2)" transform="matrix(0.497921 0 0 0.49757 -6.10352e-05 0)" d="M695.718 50.3274C700.332 52.6667 709.389 57.1012 713.125 60.2841C703.402 65.9788 691.075 73.8546 681.311 78.8042L434.183 221.294C425.8 226.228 417.077 230.606 408.683 235.484C393.549 244.278 378.707 253.52 363.268 261.795C361.028 262.996 358.789 264.277 356.692 265.715L356.609 775.326L356.596 931.911L356.58 982.204C356.58 990.556 356.835 1000.44 356.537 1008.7C356.599 1010.13 356.622 1012.19 356.784 1013.56C354.343 1014.35 341.301 1009.86 339.576 1007.77C340.183 1006.31 340.105 1003.36 340.159 1001.65C339.855 992.879 340.102 982.446 340.1 973.569L340.09 919.32L340.097 755.677L340.04 256.702C358.332 245.603 376.541 235.577 394.977 224.958L469.951 181.37C477.102 177.255 523.951 151.394 527.459 147.307C535.145 141.86 545.27 137.803 553.278 132.472C568.533 122.317 585.077 114.387 600.833 105.239L641.653 81.1341C644.204 80.0127 646.799 78.6108 649.217 77.22C664.733 68.2961 679.526 58.1084 695.718 50.3274Z"/><path fill="#142F25" transform="matrix(0.497921 0 0 0.49757 -6.10352e-05 0)" d="M695.718 50.3274C700.332 52.6667 709.389 57.1012 713.125 60.2841C703.402 65.9788 691.075 73.8546 681.311 78.8042C682.025 77.4204 683.308 75.4834 683.056 74.1062C681.09 73.8428 680.199 75.9137 677.767 76.5054C676.648 76.0329 675.517 75.5866 674.377 75.167C673.504 75.6096 673.508 75.6009 672.675 76.1784C671.657 75.5213 671.49 75.419 670.275 75.4495C671.324 73.0594 672.128 73.0404 672.123 70.8856L671.142 69.9599C669.251 72.2829 669.134 73.6865 665.852 73.2275C661.069 72.5585 640.39 89.248 637.441 86.2608L639.567 84.5502C641.205 83.245 641.256 83.2179 641.653 81.1341C644.204 80.0127 646.799 78.6108 649.217 77.22C664.733 68.2961 679.526 58.1084 695.718 50.3274Z"/><path fill="#142F25" transform="matrix(0.497921 0 0 0.49757 -6.10352e-05 0)" d="M340.159 1001.65C341.027 997.822 340.722 982.673 340.719 978.087L340.752 919.704C340.76 914.595 340.451 896.329 341.068 892.155L341.02 892.708L341.368 893.252L341.342 966.109C343.411 969.004 343.356 971.273 344.49 974.611L344.478 974.214C345.221 977.417 346.841 988.606 350.359 989.437L353.038 986.674L353.559 986.875C353.855 988.953 353.93 990.08 353.966 992.181L354.992 992.369C356.611 990.164 355.45 981.641 355.591 978.396C356.207 964.257 354.879 949.137 355.822 935.133C355.972 951.376 356.005 967.62 355.921 983.864C355.92 987.936 355.601 1005.58 356.537 1008.7C356.599 1010.13 356.622 1012.19 356.784 1013.56C354.343 1014.35 341.301 1009.86 339.576 1007.77C340.183 1006.31 340.105 1003.36 340.159 1001.65Z"/><defs><linearGradient id="gradient_3" gradientUnits="userSpaceOnUse" x1="647.73425" y1="585.03857" x2="371.37296" y2="515.18359"><stop offset="0" stop-color="#172A25"/><stop offset="1" stop-color="#287955"/></linearGradient></defs><path fill="url(#gradient_3)" transform="matrix(0.497921 0 0 0.49757 -6.10352e-05 0)" d="M712.363 137.421C716.755 136.085 734.822 123.428 743.022 119.757L742.587 120.411C741.583 121.904 740.547 122.316 740.176 124.132C741.738 124.56 745.947 122.147 747.712 121.732C747.782 121.716 749.073 123.16 749.238 123.349C752.737 124.234 756.33 123.241 757.744 123.986L757.713 125.324C760.589 125.26 761.919 125.241 764.066 123.388C764.385 124.586 763.972 126.426 763.794 127.759L544.583 253.809C526.838 264.04 508.95 273.975 491.224 284.357C474.093 294.39 456.779 303.868 439.711 314.113L439.651 791.56L439.663 938.056L439.674 983.886C439.674 989.413 440.01 1002.32 439.524 1007.28C439.652 1014.29 439.696 1021.3 439.657 1028.31C435.686 1027.98 426.493 1028.22 423.517 1026.15L423.591 1020.26C422.928 993.26 423.537 963.885 423.542 936.623L423.572 773.354L423.575 304.144L633.243 183.319C649.781 173.626 666.553 164.086 683.136 154.453C692.74 148.874 703.112 143.509 712.363 137.421Z"/><path fill="#142F25" transform="matrix(0.497921 0 0 0.49757 -6.10352e-05 0)" d="M438.551 1004.42C438.54 986.261 437.911 962.82 438.693 945.096C439.385 954.137 437.857 1002.49 439.524 1007.28C439.652 1014.29 439.696 1021.3 439.657 1028.31C435.686 1027.98 426.493 1028.22 423.517 1026.15L423.591 1020.26C425.349 1014.7 424.137 967.489 424.338 957.846C425.205 977.481 424.119 999.261 424.671 1019.37C425.37 1015.28 423.615 998.955 431.202 999.056L432.936 1001.46L433.483 1001.41C434.118 999.85 434.764 997.479 436.38 997.046C437.495 998.534 438.034 1002.37 438.551 1004.42Z"/><path fill="#142F25" transform="matrix(0.497921 0 0 0.49757 -6.10352e-05 0)" d="M743.022 119.757C749.136 115.249 764.53 107.678 771.886 103.376L914.986 21.0173C924.663 15.526 938.085 6.96757 948.348 2.01238C950.927 0.767207 959.356 6.89014 962 8.68241L962 13.5911C944.831 22.89 927.612 33.2596 910.729 43.1091L855.683 74.8997C825.322 92.6435 794.111 109.791 763.794 127.759C763.972 126.426 764.385 124.586 764.066 123.388C761.919 125.241 760.589 125.26 757.713 125.324L757.744 123.986C756.33 123.241 752.737 124.234 749.238 123.349C749.073 123.16 747.782 121.716 747.712 121.732C745.947 122.147 741.738 124.56 740.176 124.132C740.547 122.316 741.583 121.904 742.587 120.411L743.022 119.757Z"/><path fill="#142F25" transform="matrix(0.497921 0 0 0.49757 -6.10352e-05 0)" d="M506.904 944.816C507.694 940.244 507.342 922.598 507.741 916.278C508.658 932.137 507.359 951.032 507.852 967.15C508.026 972.842 507.35 981.364 508.027 986.757C508.317 986.147 508.133 986.471 508.612 985.805L510.487 987.526C512.299 986.475 510.055 986.854 511.755 985.375C518.189 993.217 517.707 988.69 526.342 986.306C531.056 985.005 536.359 984.224 541.304 984.117C554.926 983.823 566.584 981.363 579.865 978.694C704.4 953.661 810.27 878.881 882.769 775.555C889.133 766.485 893.594 754.207 899.628 744.762C912.844 724.79 918.889 700.595 929.435 679.944L929.393 679.089L930.624 677.991C930.394 680.141 930.067 681.111 931.261 682.659L932.178 682.721C935.764 674.8 935.966 670.725 936.887 662.702C937.269 659.379 942.982 654.396 942.926 648.459C942.842 639.555 946.313 629.633 948.627 621.177C949.216 613.944 951.42 605.94 951.88 598.804C952.903 582.951 955.985 567.143 956.773 551.342C957.402 538.743 955.999 526.827 957.892 514.347C960.391 512.299 960.372 512.797 960.31 509.781C958.174 507.272 959.641 500.591 961.169 499.715L962 501.594L962 613.857C959.821 624.201 959.039 635.105 956.813 645.439C952.513 665.056 948.216 685.248 941.785 704.308C936.275 720.637 928.476 736.977 921.816 752.963C911.469 777.799 896.145 800.95 881.823 823.674C878.487 828.967 873.642 834.003 869.982 839.147C859.579 854.363 847.569 867.255 835.019 880.609C828.147 887.921 824.418 893.35 815.954 899.499C810.411 905.112 804.564 910.536 798.631 915.698C784.132 928.312 769.21 938.997 753.412 949.803C742.176 957.488 733.085 963.133 721.117 969.833C682.042 991.82 640.094 1008.25 596.484 1018.66C587.019 1020.94 577.444 1022.21 567.996 1024.09L566.034 1024.42C557.689 1025.84 549.526 1026.42 541.137 1027.33C538.211 1027.65 531.491 1028.14 528.873 1029L506.706 1029C507.32 1001.18 506.199 972.572 506.904 944.816Z"/><path fill="#FEFEFE" transform="matrix(0.497921 0 0 0.49757 -6.10352e-05 0)" d="M712.462 471.196C714.968 472.119 723.402 477.481 726.388 479.142C744.126 488.836 761.618 498.974 778.847 509.546C772.001 514.182 763.733 517.993 756.546 522.179L703.243 553.073L609.253 607.117C603.954 610.155 598.986 613.603 593.781 616.643C584.434 622.104 574.866 627.56 565.374 632.76C551.038 639.899 537.999 649.463 522.869 657.15L522.925 579.769C535.977 572.623 548.96 565.348 561.87 557.948C568.72 553.961 575.335 549.581 582.238 545.659L656.534 503.399C675.675 492.283 692.738 481.868 712.462 471.196Z"/><path fill="#FEFEFE" transform="matrix(0.497921 0 0 0.49757 -6.10352e-05 0)" d="M629.141 423.001C631.357 423.812 638.133 428.079 640.508 429.46L667.378 445.166C676.424 450.461 686.979 455.209 695.209 461.408C690.37 465.137 681.247 470.154 675.752 473.274L642.508 491.961L587.981 523.496C580.133 528.108 572.856 532.877 564.836 537.313C550.112 545.076 537.163 552.908 522.914 561.45L522.92 483.846C538.978 475.097 554.363 465.357 570.244 456.657C589.981 445.844 609.338 433.353 629.141 423.001Z"/><path fill="#142F25" transform="matrix(0.497921 0 0 0.49757 -6.10352e-05 0)" d="M950.53 445.68C952.813 446.815 953.74 451.99 953.389 454.357L952.352 453.802C951.344 452.017 950.643 447.734 950.53 445.68Z"/></svg>